#!OML:ASF H:\Terrain\Walking\May29\JustinRory\Justin.ASF
:FULLY-SPECIFIED
:DEGREES
508
root 2.23662 17.4389 11.0171 -193.709 -92.795 -172.249
lowerback 4.26931 4.35507 -0.02678
upperback -0.897265 5.78286 -0.687033
thorax -3.24068 2.87176 -1.09308
lowerneck -22.6547 2.40327 -9.27196
upperneck -5.06148 4.97702 -4.48404
head 2.06693 2.16189 0.54883
rclavicle 2.01021e-014 -3.18055e-015
rhumerus 35.6385 -36.6787 -39.3625
rradius 46.2502
rwrist -51.3958
rhand -25.8555 20.7087
rfingers 7.12502
rthumb 0.685326 -9.26993
lclavicle 2.01021e-014 -3.18055e-015
lhumerus 12.7412 62.2972 15.6166
lradius 35.6165
lwrist 27.0965
lhand 6.4304 38.9512
lfingers 7.12502
lthumb 31.7333 66.2102
rfemur -19.4888 0.331632 19.5085
rtibia 36.8903
rfoot -12.3155 3.80811
rtoes -9.18844
lfemur -1.51081 -13.0957 -23.8446
ltibia 32.0984
lfoot 20.3224 -48.4674
ltoes 51.4495
509
root 2.19129 17.4195 11.0192 -194.34 -93.4451 -171.791
lowerback 4.51053 4.35466 -0.320412
upperback -0.989741 5.76971 -0.532283
thorax -3.51696 2.87028 -0.799454
lowerneck -21.7667 2.44234 -10.0498
upperneck -5.4416 5.07916 -4.00958
head 1.74461 2.28265 0.820319
rclavicle 7.90914e-014 -1.98785e-015
rhumerus 35.7158 -37.2185 -38.3494
rradius 46.0507
rwrist -51.3663
rhand -23.7891 20.4515
rfingers 7.12502
rthumb 2.68101 -9.51139
lclavicle 7.90914e-014 -1.98785e-015
lhumerus 12.6107 62.2516 15.322
lradius 35.8315
lwrist 27.1078
lhand 6.31518 38.9661
lfingers 7.12502
lthumb 31.6236 66.2468
rfemur -19.2745 -0.265493 19.476
rtibia 37.2024
rfoot -12.5018 3.67776
rtoes -7.51622
lfemur -1.20282 -13.178 -23.9874
ltibia 32.0879
lfoot 22.4761 -48.3098
ltoes 52.6699
510
root 2.15376 17.3971 11.0201 -189.406 -93.535 -176.626
lowerback 4.52859 4.54377 -0.28354
upperback -1.12363 6.03377 -0.282964
thorax -3.68703 3.00281 -0.594248
lowerneck -21.5881 2.45704 -10.1587
upperneck -5.36083 5.11829 -4.11578
head 1.74081 2.30114 0.803938
rclavicle 7.94393e-014 -7.95139e-016
rhumerus 35.9194 -37.9667 -37.4989
rradius 45.653
rwrist -51.0694
rhand -23.4173 19.9982
rfingers 7.12502
rthumb 3.04012 -9.95987
lclavicle 7.94393e-014 -7.95139e-016
lhumerus 13.8795 63.0314 16.5024
lradius 35.8552
lwrist 26.3172
lhand 6.0399 38.4695
lfingers 7.12502
lthumb 31.3613 65.8014
rfemur -19.3511 -0.281519 19.9417
rtibia 37.2806
rfoot -12.2568 3.14824
rtoes -5.82135
lfemur -1.2501 -13.195 -23.6207
ltibia 32.1772
lfoot 24.1903 -47.775
ltoes 52.4492
511
root 2.10492 17.399 11.0174 -192.345 -93.9512 -173.67
lowerback 4.52188 4.6995 -0.821809
upperback -1.1709 6.21113 -0.232054
thorax -3.79488 3.10288 -0.264612
lowerneck -21.6959 2.45006 -10.3366
upperneck -4.9975 5.20439 -3.88036
head 1.87491 2.34299 0.929992
rclavicle 2.5345e-014 -7.35503e-015
rhumerus 35.5615 -38.6093 -36.2258
rradius 45.3099
rwrist -51.2476
rhand -23.5783 20.1524
rfingers 7.12502
rthumb 2.88458 -9.80784
lclavicle 2.5345e-014 -7.35503e-015
lhumerus 15.724 63.929 18.1917
lradius 35.8935
lwrist 25.5172
lhand 6.01206 37.8286
lfingers 7.12502
lthumb 31.3348 65.1657
rfemur -19.0451 -0.0999352 19.7297
rtibia 37.0405
rfoot -11.8228 2.2775
rtoes -2.67662
lfemur -1.38054 -13.2058 -23.7408
ltibia 32.5195
lfoot 24.9665 -47.8477
ltoes 51.4203
512
root 2.05093 17.4045 11.0224 -189.02 -94.783 -177.234
lowerback 4.70461 4.59351 -0.709861
upperback -1.12485 6.07544 -0.217444
thorax -3.83886 3.03257 -0.313805
lowerneck -22.2263 2.73986 -9.69049
upperneck -4.3743 5.56729 -4.23576
head 2.20318 2.4644 0.754982
rclavicle -5.93124e-014 5.56597e-015
rhumerus 35.1589 -39.228 -35.1469
rradius 44.8689
rwrist -51.5877
rhand -22.4717 21.1536
rfingers 7.12502
rthumb 3.95331 -8.78946
lclavicle -5.93124e-014 5.56597e-015
lhumerus 16.7159 64.3009 18.6205
lradius 35.9281
lwrist 25.5268
lhand 6.14921 38.1528
lfingers 7.12502
lthumb 31.4655 65.4645
rfemur -18.284 -0.363512 19.8272
rtibia 36.6279
rfoot -11.6428 1.3913
rtoes -1.40354
lfemur -1.36129 -13.546 -23.4666
ltibia 33.0435
lfoot 25.9352 -47.9978
ltoes 54.1887
513
root 2.00471 17.3736 11.0361 -173.342 -95.2394 -192.886
lowerback 4.60805 4.47991 0.833561
upperback -1.2731 6.03142 0.0970976
thorax -3.81254 2.97962 -0.83207
lowerneck -22.3986 3.16674 -8.77636
upperneck -3.89446 5.99865 -4.93063
head 2.44213 2.61318 0.415453
rclavicle 3.88624e-014 -6.36111e-015
rhumerus 35.1626 -39.7208 -34.5444
rradius 44.5357
rwrist -51.7421
rhand -20.2016 22.6074
rfingers 7.12502
rthumb 6.14518 -7.28345
lclavicle 3.88624e-014 -6.36111e-015
lhumerus 16.2253 64.0346 17.5243
lradius 36.0286
lwrist 26.1508
lhand 5.91505 38.2974
lfingers 7.12502
lthumb 31.2424 65.6524
rfemur -17.9381 -0.206386 21.2411
rtibia 36.1462
rfoot -10.9991 0.756224
rtoes -2.04316
lfemur -1.66592 -13.2972 -21.8137
ltibia 33.7365
lfoot 28.1115 -47.7617
ltoes 52.5422
514
root 1.95713 17.3573 11.0429 -171.433 -96.0267 -194.775
lowerback 4.5939 4.37641 1.33661
upperback -1.41069 5.92658 0.136216
thorax -3.90235 2.91421 -1.06545
lowerneck -22.1292 3.45861 -8.27384
upperneck -3.73681 6.27246 -5.37686
head 2.47729 2.72474 0.200295
rclavicle 3.22031e-014 7.15625e-015
rhumerus 35.1333 -40.3874 -33.9815
rradius 44.3979
rwrist -51.6211
rhand -21.1505 22.5629
rfingers 7.12502
rthumb 5.22902 -7.35254
lclavicle 3.22031e-014 7.15625e-015
lhumerus 16.1782 63.7022 17.0803
lradius 36.1715
lwrist 26.5722
lhand 5.55823 37.7886
lfingers 7.12502
lthumb 30.9023 65.2086
rfemur -17.5966 0.02708 21.445
rtibia 35.8607
rfoot -10.5775 -0.0192836
rtoes -1.94017
lfemur -2.02778 -12.7866 -21.2248
ltibia 34.4253
lfoot 29.6499 -48.1737
ltoes 51.8629
